<?xml version="1.0" encoding="utf-8"?>
<!-- Generator: Adobe Illustrator 26.1.0, SVG Export Plug-In . SVG Version: 6.00 Build 0)  -->
<svg version="1.1" id="Ebene_1" xmlns="http://www.w3.org/2000/svg" xmlns:xlink="http://www.w3.org/1999/xlink" x="0px" y="0px"
	 viewBox="0 0 2048 2048" style="enable-background:new 0 0 2048 2048;" xml:space="preserve">
<style type="text/css">
	.st0{fill:#CCCCCC;fill-opacity:0;stroke:#000000;}
	.st1{font-family:'MyriadPro-Regular';}
	.st2{font-size:12px;}
</style>
<desc>Bär.blend, (Blender 3.3.2)</desc>
<g>
	<polygon class="st0" points="739.3,621.6 739.2,618.4 739.2,615.3 739.1,612.2 739,609 739,605.9 739,602.8 739.1,599.7 
		739.1,596.6 739.2,593.6 739.3,590.7 739.3,587.9 739.3,585.2 739.4,582.6 739.3,580.3 739.2,578.1 739.2,576.1 739,574.3 
		738.9,572.5 738.8,570.8 738.6,569.2 738.5,567.5 733.5,567.5 728.4,567.5 723.4,567.5 718.5,567.6 713.6,567.7 708.8,567.9 
		704,568.2 699.4,568.6 694.8,569 690.4,569.6 686.2,570.2 682.2,570.8 678.5,571.5 675.2,572.2 672.2,572.8 669.7,573.4 
		667.7,573.9 666.2,574.3 665,574.6 664.1,574.8 663.4,575 663,575.1 662.7,575.2 662.4,575.2 662.5,576.2 662.5,577.3 662.6,578.4 
		662.7,579.5 662.9,580.8 663,582.1 663.2,583.4 663.4,584.9 662.9,583.5 662.4,582.2 661.8,581.1 661.1,580.1 660.3,579.2 
		659.6,578.5 658.8,577.8 658,577.3 657.9,577.5 657.7,577.8 657.5,578.1 657.3,578.4 657.1,578.7 656.9,579.1 656.6,579.5 
		656.3,580 656,580.5 655.6,581 655.3,581.7 654.9,582.4 654.6,583.3 654.2,584.2 653.9,585.3 653.7,586.6 653.5,588 653.3,589.5 
		653.3,591.2 653.2,593 653.2,594.9 653.2,596.9 653.2,599 653.2,601.2 653.2,603.4 653.2,605.6 653.2,607.8 653.3,610 653.3,612.1 
		653.3,614.2 653.4,616 653.5,617.7 653.7,619.2 653.9,620.5 654.2,621.6 654.5,622.5 654.7,623.4 655,624.1 655.3,624.7 
		655.6,625.3 655.9,625.9 656.1,626.3 656.4,626.8 656.6,627.2 656.8,627.7 657,628 657.3,628.4 657.5,628.7 658.4,627.5 
		659.3,626.1 660.2,624.6 661,622.9 661.8,621.2 662.6,619.3 663.3,617.4 663.8,615.5 663.3,617.5 662.8,619.4 662.2,621.4 
		661.5,623.2 660.8,625 660.2,626.7 659.5,628.2 658.8,629.6 659.2,629.9 659.6,630.1 660.1,630.4 660.9,630.8 662,631.3 
		663.3,631.8 665.2,632.5 667.4,633.4 670.3,634.4 673.6,635.5 677.3,636.7 681.3,638 685.6,639.3 690.1,640.6 694.7,641.8 
		699.4,643 704,644.2 708.7,645.2 713.4,646.3 718.1,647.2 722.9,648.1 727.8,649 732.8,649.8 738,650.6 738.2,648.6 738.5,646.3 
		738.7,644 738.9,641.6 739,639 739.2,636.3 739.3,633.5 739.3,630.7 739.4,627.7 739.3,624.6 	"/>
	<polygon class="st0" points="617.9,586 618.4,582.5 619.4,578.9 621.7,575.1 620.9,570 620.3,566.6 619.9,563.8 619.5,561.3 
		619.1,559.1 618.8,557 618.5,555 618.2,553 617.9,551.1 617.7,549.1 617.4,547.2 617.2,545.2 616.9,543.3 616.7,541.3 616.5,539.3 
		616.3,537.4 613.5,537.7 611.1,537.9 608.9,538.1 606.9,538.3 605,538.4 603.3,538.6 601.6,538.7 600,538.8 598.5,538.8 
		597.1,538.9 595.7,539 594.4,539.1 593.2,539.1 592,539.2 590.9,539.3 589.8,539.3 588.7,539.4 587.7,539.5 586.7,539.5 
		585.7,539.6 584.7,539.6 583.7,539.7 582.7,539.7 581.7,539.8 580.7,539.9 579.6,539.9 578.5,540 577.4,540 576.3,540.1 
		575.1,540.2 574,540.2 572.8,540.3 571.6,540.4 570.4,540.5 569.1,540.5 567.8,540.6 566.5,540.7 565.2,540.8 563.9,540.8 
		562.6,540.9 561.2,541 559.8,541.1 558.5,541.2 557.1,541.3 555.8,541.3 554.5,541.4 553.2,541.5 552.1,541.6 550.9,541.6 
		549.9,541.7 548.8,541.7 547.6,541.8 546.4,541.9 545.1,541.9 543.5,542 541.8,542 541.9,544 542,546 542.1,547.9 542.3,549.8 
		542.4,551.8 542.5,553.7 542.6,555.6 542.7,557.6 542.8,559.5 542.9,561.4 543,563.2 543,565.1 543,566.9 542.9,568.7 542.8,570.4 
		542.6,572 542.2,573.7 541.8,575.2 541.4,576.7 540.8,578.1 540.2,579.5 539.6,580.9 538.9,582.2 538.2,583.5 537.5,584.8 
		536.8,586.1 536,587.3 535.3,588.6 534.6,589.8 533.8,591.1 533.1,592.3 532.4,593.5 531.8,594.6 531.1,595.7 530.5,596.8 
		530,597.9 529.4,598.9 528.8,599.8 528.3,600.8 527.8,601.7 529.2,602.4 530.6,603.1 531.8,603.8 532.9,604.5 534,605.2 
		535.1,605.9 536.2,606.6 537.3,607.4 538.5,608.3 539.8,609.3 541.1,610.3 542.5,611.4 544,612.5 545.4,613.8 546.9,615 
		548.5,616.4 550,617.8 551.5,619.2 553.1,620.7 554.6,622.2 556.2,623.6 557.7,625.1 559.3,626.6 560.8,628 562.3,629.3 
		563.8,630.7 565.3,631.9 566.8,633.1 568.3,634.3 569.9,635.4 571.4,636.5 572.9,637.5 574.4,638.4 576,639.3 577.5,640.1 
		579.1,640.8 580.7,641.5 582.3,642.2 583.9,642.8 585.5,643.4 587.2,643.9 588.9,644.4 590.6,644.9 592.4,645.3 594.3,645.8 
		596.3,646.2 598.4,646.7 600.7,647.1 603.1,647.6 605.6,648.1 608.2,648.6 610.7,649.1 613.3,649.5 615.7,649.9 617.9,650.3 
		619.9,650.6 619.7,648.9 619.6,647.1 619.5,645.3 619.5,643.5 619.7,641.6 620.1,639.5 620.7,637.2 621.7,634.2 621,630.2 
		620.5,626.6 620.1,623 619.7,619.5 619.4,615.9 619,612.2 618.7,608.6 618.4,604.9 618.1,601.1 617.9,597.3 617.7,593.5 
		617.7,589.7 	"/>
</g>
<polygon class="st0" points="734.6,882.8 734.3,878.5 733.9,874.1 733.4,869.9 733,865.6 732.5,861.4 732,857.2 731.6,853 
	731.3,848.8 730.9,844.4 730.6,840 730.3,835.4 729.9,830.7 729.6,825.7 729.2,820.4 728.9,814.8 728.5,809 728.1,803 727.7,796.9 
	727.3,790.8 727,784.7 726.7,778.7 726.5,772.8 726.3,767.2 726.2,761.9 726.2,756.8 726.3,751.9 726.4,747.2 726.6,742.6 
	726.9,738.3 727.2,734.1 727.5,730 727.9,726.1 728.4,722.3 728.9,718.6 729.4,715.1 730,711.7 730.7,708.4 731.5,705.2 
	732.3,702.1 733.1,699.2 733.8,696.3 734.4,693.6 734.8,690.9 735,688.2 734.7,685.5 733.8,682.2 730.9,684.8 728.5,687 726.1,689 
	723.7,691 721,693 718.1,695.1 714.8,697.2 709.9,699.7 704.5,701.4 700.4,702.3 696.7,702.9 693.1,703.2 689.6,703.5 686.2,703.7 
	682.8,703.8 679.4,704 676,704.1 672.6,704.3 669.2,704.5 665.8,704.7 662.4,704.8 659.2,704.9 656,705 653,705 650,705 647.1,705 
	644.2,704.9 641.4,704.8 638.4,704.8 635.4,704.7 632.3,704.6 629.1,704.5 625.7,704.3 622.2,704.1 618.7,703.8 615.1,703.5 
	611.4,703.1 607.7,702.8 604.1,702.4 600.5,702 597,701.5 593.6,701.1 590.1,700.7 586.7,700.2 583.3,699.6 579.8,698.8 576,697.9 
	571.2,696.3 567,694.4 564.3,692.8 562,691.4 560.1,690.1 558.3,688.8 556.7,687.4 555,686.1 553.1,684.3 551.8,687.4 551.2,689.8 
	550.9,692.1 550.8,694.4 550.9,696.7 551.2,699.1 551.6,701.5 552,704.1 552.5,706.9 552.9,709.7 553.4,712.7 553.9,715.8 
	554.3,719 554.8,722.2 555.1,725.4 555.5,728.6 555.8,731.8 556.1,734.9 556.2,738 556.4,741.1 556.4,744.1 556.4,747 556.3,749.9 
	556.1,752.7 555.9,755.4 555.5,758.1 555.1,760.8 554.6,763.5 554.1,766.2 553.5,769.1 552.9,772.1 552.3,775.2 551.6,778.6 
	550.9,782.1 550.2,785.8 549.3,789.6 548.5,793.4 547.5,797.3 546.5,801.3 545.3,805.8 542.4,808.3 540.1,810.1 538.1,811.8 
	536.2,813.4 534.3,814.9 532.5,816.4 530.5,818.1 527.8,820.6 533.4,822.5 537,823.8 540,825 542.8,826 545.4,826.9 547.9,827.6 
	550.2,828.3 552.4,828.9 554.5,829.5 556.6,830.1 558.6,830.6 560.5,831.1 562.5,831.7 564.4,832.2 566.3,832.8 568.2,833.4 
	570.3,834 572.4,834.7 574.7,835.4 577.1,836.1 579.7,836.9 582.5,837.7 585.6,838.5 588.9,839.5 592.6,840.6 596.5,841.8 
	600.6,843.2 604.8,844.7 609.1,846.4 613.4,848.1 617.6,849.9 621.7,851.7 625.6,853.6 629.4,855.5 632.9,857.4 636.4,859.3 
	639.7,861.3 642.9,863.3 646.1,865.3 649.2,867.5 652.4,869.8 655.6,872.2 658.9,874.8 662.3,877.5 665.7,880.6 669.3,884 
	673.1,887.8 677.5,892.9 684,894 689,894.7 693.3,895.3 697.3,895.7 700.9,896 704.3,896.2 707.5,896.2 710.7,896.2 713.7,896 
	716.7,895.6 719.7,895.2 722.7,894.7 725.7,894.1 728.7,893.4 731.8,892.6 735,891.8 734.9,887.2 "/>
<polygon class="st0" points="1451.5,1473.6 1451.4,1471.1 1451.4,1468.6 1451.4,1466 1451.3,1463.3 1451.2,1460.3 1450.9,1456.4 
	1451.3,1451.5 1451.6,1447.3 1451.8,1443 1452,1438.8 1452.1,1434.5 1452.2,1430.1 1452.3,1425.7 1452.4,1421.2 1452.4,1416.6 
	1452.4,1412 1452.4,1407.3 1452.4,1402.7 1452.2,1398.1 1452,1393.5 1451.7,1389.1 1451.3,1384.7 1450.8,1380.4 1450.1,1376.3 
	1449.3,1372.3 1448.4,1368.6 1447.3,1365 1446,1361.8 1444.6,1358.7 1443.2,1355.9 1441.9,1356.8 1440.7,1357.6 1439.6,1358.5 
	1438.5,1359.4 1437.5,1360.3 1436.6,1361.2 1435.7,1362.1 1435.1,1362.8 1435.7,1362.1 1436.4,1361.1 1437.2,1360 1438,1358.9 
	1438.9,1357.8 1439.8,1356.6 1440.7,1355.4 1441.6,1354.2 1439.3,1352.2 1436.9,1350.4 1434.4,1348.8 1431.7,1347.4 1428.9,1346.1 
	1426,1345 1422.9,1344 1419.7,1343.2 1419.3,1345 1418.9,1346.8 1418.6,1348.7 1418.2,1350.5 1417.8,1352.4 1417.5,1354.4 
	1417.2,1356.5 1416.9,1358.9 1417,1356.5 1417.1,1354.3 1417.2,1352.3 1417.3,1350.4 1417.4,1348.5 1417.5,1346.6 1417.5,1344.7 
	1417.6,1342.8 1414.2,1342.6 1410.7,1342.5 1407.2,1342.4 1403.6,1342.4 1399.9,1342.6 1396.1,1342.8 1392.2,1343.1 1388.2,1343.5 
	1388.3,1345.5 1388.4,1347.4 1388.5,1349.4 1388.5,1351.3 1388.5,1353.2 1388.5,1355.3 1388.4,1357.4 1388.2,1359.7 1388.2,1357.4 
	1388.1,1355.3 1387.9,1353.3 1387.6,1351.3 1387.3,1349.5 1386.9,1347.6 1386.4,1345.7 1385.9,1343.8 1382,1345.1 1378,1346.3 
	1374,1347.7 1370,1349.2 1366.2,1350.8 1362.6,1352.6 1359.3,1354.3 1356.2,1356.2 1357.1,1357.6 1358,1359.1 1358.9,1360.4 
	1359.8,1361.7 1360.7,1362.9 1361.7,1364 1362.6,1364.9 1363.3,1365.6 1362.5,1365 1361.5,1364.1 1360.5,1363.2 1359.3,1362.1 
	1358.2,1361 1357,1359.9 1355.9,1358.6 1354.6,1357.4 1352.3,1359.9 1350.2,1362.3 1348.3,1364.9 1346.7,1367.5 1345.2,1370.4 
	1343.8,1373.4 1342.6,1376.7 1341.5,1380.2 1340.4,1383.9 1339.5,1387.9 1338.6,1392.1 1337.9,1396.4 1337.2,1400.7 1336.6,1405.2 
	1336,1409.6 1335.5,1413.9 1335.1,1418.1 1334.7,1422.3 1334.3,1426.4 1334,1430.4 1333.8,1434.4 1333.6,1438.4 1333.5,1442.5 
	1333.5,1447.3 1332.4,1450.8 1331.7,1453.6 1331.1,1456.3 1330.6,1458.9 1330.1,1461.5 1329.4,1464.1 1328.5,1466.8 1326.8,1470.1 
	1328.1,1474.8 1329,1478.5 1329.9,1481.9 1330.8,1485.1 1331.8,1488.2 1332.9,1491.2 1334.1,1494.1 1335.4,1497 1337.3,1496.2 
	1339,1495.5 1340.5,1495 1341.9,1494.4 1343.3,1493.9 1344.6,1493.5 1345.9,1493 1347.4,1492.5 1348.9,1492 1350.4,1491.5 
	1352,1490.8 1353.6,1490.2 1355.1,1489.6 1356.5,1488.9 1357.8,1488.2 1358.7,1487.8 1357.8,1488.3 1356.7,1489.1 1355.4,1490 
	1354,1490.9 1352.7,1491.9 1351.3,1492.9 1350,1494 1348.8,1495 1347.7,1495.9 1346.6,1496.9 1345.6,1497.8 1344.6,1498.9 
	1343.6,1500 1342.6,1501.2 1341.5,1502.6 1340.4,1504.3 1343.1,1505.9 1345.9,1507.6 1349,1509.2 1352.2,1510.7 1355.6,1512.3 
	1359.1,1513.9 1362.9,1515.4 1366.8,1517 1367.7,1515.4 1368.6,1513.7 1369.5,1512.2 1370.3,1510.7 1371.2,1509.2 1371.9,1507.8 
	1372.7,1506.3 1373.5,1504.9 1374.3,1503.6 1375.1,1502.2 1375.8,1500.8 1376.5,1499.4 1377.2,1497.9 1377.9,1496.4 1378.4,1494.7 
	1378.9,1492.9 1378.6,1494.8 1378.2,1496.5 1377.9,1498.1 1377.5,1499.6 1377.1,1501.1 1376.7,1502.7 1376.3,1504.2 1376,1505.7 
	1375.6,1507.3 1375.3,1508.9 1375,1510.5 1374.7,1512.1 1374.5,1513.8 1374.2,1515.5 1373.9,1517.3 1373.5,1519.2 1377.8,1519.4 
	1382.2,1519.7 1386.7,1519.9 1391.2,1520.1 1395.7,1520.2 1400.1,1520.2 1404.3,1520.2 1408.4,1520.2 1408.5,1518.2 1408.6,1516.4 
	1408.6,1514.6 1408.5,1512.8 1408.4,1511.1 1408.2,1509.5 1408.1,1507.9 1407.9,1506.3 1407.7,1504.7 1407.5,1503.2 1407.3,1501.7 
	1407.2,1500.2 1407.1,1498.7 1407.1,1497.1 1407.2,1495.4 1407.4,1493.5 1407.4,1495.4 1407.6,1497.2 1407.9,1498.7 1408.3,1500.1 
	1408.8,1501.5 1409.4,1502.9 1410.1,1504.3 1410.8,1505.7 1411.5,1507.1 1412.3,1508.6 1413,1510.1 1413.7,1511.6 1414.5,1513.2 
	1415.2,1514.9 1415.8,1516.6 1416.5,1518.4 1420,1516.8 1423.3,1515.2 1426.4,1513.6 1429.2,1512 1431.8,1510.3 1434.3,1508.7 
	1436.6,1507.1 1438.7,1505.4 1437.9,1503.7 1437.1,1502.3 1436.3,1500.9 1435.5,1499.7 1434.7,1498.5 1433.8,1497.4 1433,1496.4 
	1432.1,1495.3 1431.2,1494.3 1430.3,1493.2 1429.4,1492.2 1428.5,1491.1 1427.6,1490.1 1426.9,1489.2 1426.2,1488.4 1425.7,1487.8 
	1426.2,1488.4 1427,1489.1 1427.9,1489.9 1428.9,1490.8 1429.9,1491.6 1431,1492.4 1432.2,1493.2 1433.3,1494 1434.5,1494.8 
	1435.6,1495.5 1436.7,1496.3 1437.9,1497.1 1439.1,1498 1440.3,1499 1441.6,1500.1 1442.9,1501.3 1444.2,1499 1445.4,1496.7 
	1446.5,1494.3 1447.6,1491.9 1448.7,1489.3 1449.8,1486.7 1450.9,1483.7 1452.4,1480 1451.7,1476.4 "/>
<polygon class="st0" points="802,1075.5 801.9,1070.2 801.8,1064.8 801.7,1059.5 801.6,1054.2 801.4,1048.9 801.3,1043.7 
	801.1,1038.5 800.9,1033.3 800.6,1028.2 800.3,1023 800,1017.9 799.7,1012.7 799.3,1007.4 798.9,1002.2 798.5,996.9 798.1,991.8 
	797.6,986.7 797.2,981.8 796.8,977.2 796.4,972.8 796,968.8 795.6,965 795.3,961.5 795,958.3 794.7,955.2 794.4,952.3 794.1,949.6 
	793.8,947 793.6,944.5 793.3,942 793,939.6 792.7,937.2 792.5,934.8 792.2,932.5 791.9,930.1 791.6,927.8 789.5,928.1 787.5,928.4 
	785.4,928.7 783.4,929 781.3,929.3 779.3,929.6 777.2,929.9 775.2,930.2 773.1,930.5 771,930.9 768.8,931.2 766.4,931.6 
	763.9,932.1 761.1,932.7 758,933.3 754.5,934.1 750.7,935 746.5,936.1 742,937.2 737.3,938.4 732.3,939.7 727.2,941.1 721.8,942.5 
	715.7,944.1 711.7,943.5 708.4,943.2 705.2,943 702,942.9 698.7,942.9 695.2,942.9 691.3,942.8 686,942.4 679.3,947.7 674.2,951.5 
	669.5,954.9 665,958.2 660.5,961.2 656.2,964.2 652,966.9 647.9,969.5 644,971.9 640.3,974.2 636.6,976.5 633.1,978.8 629.6,981.1 
	626.2,983.5 622.9,986.1 619.6,988.8 616.2,991.9 612.9,995.1 609.4,998.6 605.9,1002.3 602.2,1006.3 598.3,1010.5 594.1,1015.1 
	588.8,1020.6 582.6,1022.3 577.6,1023.3 573,1024 568.8,1024.6 564.8,1024.9 560.9,1025.2 557.2,1025.3 553.6,1025.3 552.2,1030 
	550.6,1034.8 548.8,1039.6 547,1044.5 545.1,1049.4 543.2,1054.4 541.5,1059.3 539.8,1064.3 538.3,1069.4 536.9,1074.4 
	535.7,1079.5 534.5,1084.6 533.5,1089.8 532.6,1095 531.8,1100.3 531,1105.7 530.3,1111.1 529.7,1116.6 529.1,1122 528.6,1127.4 
	528.2,1132.8 528,1138 527.8,1143.1 527.8,1148 527.8,1152.7 528,1157.2 528.2,1161.6 528.6,1165.9 529,1170.1 529.4,1174.3 
	529.9,1178.5 530.5,1182.6 531.1,1186.9 531.7,1191.2 532.4,1195.5 533.1,1199.8 533.9,1204.2 534.8,1208.5 535.7,1212.9 
	536.7,1217.3 537.8,1221.7 538.9,1226.1 540.1,1230.6 541.4,1235.3 542.8,1240.3 544.2,1245.5 545.6,1251 547.1,1257 548.6,1263.5 
	550.2,1270.2 551.6,1277.1 553,1284 554.3,1290.7 555.5,1297.1 556.4,1302.9 557.2,1308.1 557.9,1312.5 558.4,1316.1 558.8,1319.1 
	559.2,1321.5 559.5,1323.6 559.8,1325.4 560.1,1326.9 560.3,1328.4 560.6,1329.9 560.8,1331.3 561,1332.7 561.3,1334 561.5,1335.2 
	561.7,1336.5 561.9,1338 561.9,1339.9 565.2,1340.3 568.4,1340.8 571.7,1341.4 575.1,1342 578.5,1342.9 581.8,1343.9 585.2,1345 
	588.6,1346.4 591.9,1348 595.1,1349.7 598.3,1351.7 601.3,1353.8 604.3,1356.1 607.3,1358.6 610.1,1361.4 613.4,1364.8 614,1367.8 
	614.4,1370.3 615,1372.7 615.6,1375.2 616.4,1377.7 617.2,1380.5 618.2,1383.5 619.5,1387.3 622.6,1390.9 624.6,1393.9 
	626.1,1396.7 627.4,1399.5 628.5,1402.4 629.6,1405.7 630.7,1409.6 632.2,1415.7 634.1,1423.4 635.5,1429.7 636.8,1435.7 
	638,1441.6 639.1,1447.5 640.2,1453.5 641.5,1460 643.4,1468.9 645.8,1478.6 647.6,1485.8 649.2,1492.4 650.7,1498.6 652,1504.5 
	653.2,1510 654.1,1515.3 654.9,1520.2 658.7,1519.1 662.8,1517.8 667,1516.6 671.3,1515.5 675.6,1514.3 679.9,1513.3 684.2,1512.3 
	688.3,1511.5 692.2,1510.8 696,1510.2 699.6,1509.7 703.1,1509.3 706.6,1508.9 710,1508.7 713.4,1508.4 716.7,1508.2 720,1508 
	723.3,1507.8 726.6,1507.6 729.8,1507.5 732.9,1507.4 735.9,1507.2 738.8,1507.1 741.5,1507 744.1,1506.9 746.5,1506.9 
	748.8,1506.8 750.9,1506.7 753,1506.7 755,1506.7 757,1506.6 759,1506.6 760.9,1506.6 762.8,1506.5 764.8,1506.5 766.7,1506.5 
	768.7,1506.4 770.6,1506.4 772.6,1506.3 774.5,1506.3 774.9,1500 775.3,1493.6 775.7,1487.1 776.1,1480.5 776.4,1474 776.8,1467.5 
	777.1,1461.2 777.4,1455 777.7,1449.1 778,1443.4 778.2,1437.8 778.5,1432.5 778.7,1427.3 778.9,1422.1 779.2,1417.1 779.4,1412.2 
	779.6,1407.3 779.8,1402.5 780,1397.7 780.2,1392.9 780.4,1388.1 780.6,1383.3 780.9,1378.5 781.1,1373.6 781.3,1368.8 
	781.5,1363.9 781.8,1359 782,1354 782.3,1348.9 782.6,1343.8 782.9,1338.6 783.3,1333.4 783.6,1328 784,1322.6 784.4,1317.1 
	784.9,1311.5 785.3,1305.9 785.8,1300.2 786.3,1294.5 786.8,1288.7 787.4,1282.9 787.9,1277.1 788.5,1271.3 789.1,1265.6 
	789.6,1259.9 790.2,1254.4 790.8,1248.9 791.3,1243.6 791.8,1238.5 792.3,1233.5 792.8,1228.7 793.3,1223.9 793.8,1219.3 
	794.3,1214.7 794.7,1210.1 795.2,1205.6 795.6,1201 796,1196.4 796.5,1191.9 796.9,1187.4 797.3,1182.9 797.7,1178.4 798.1,1174 
	798.4,1169.6 798.8,1165.3 799.1,1161.1 799.4,1156.9 799.7,1152.6 800,1148.4 800.2,1144.1 800.5,1139.8 800.7,1135.4 
	800.9,1130.9 801.1,1126.3 801.3,1121.6 801.5,1116.8 801.6,1111.9 801.7,1106.9 801.8,1101.8 801.9,1096.7 802,1091.5 802,1086.2 
	802,1080.9 "/>
<polygon class="st0" points="1292.7,1261.8 1291.3,1259.8 1289.8,1257.7 1288.2,1255.6 1286.5,1253.3 1284.6,1250.7 1282.2,1247.5 
	1281.3,1243 1280.4,1239.6 1279.5,1236.6 1278.4,1233.7 1277.3,1230.9 1276.1,1228.1 1274.9,1224.9 1273.5,1220.3 1272.6,1215.3 
	1272.2,1211.6 1272,1208.2 1272,1205 1272,1201.9 1272.1,1198.7 1272.3,1195.4 1272.5,1191.3 1273.9,1188.4 1275.1,1186 
	1276.2,1183.8 1277.4,1181.7 1278.7,1179.6 1280.2,1177.6 1282,1175.4 1284.3,1171.6 1286.3,1165.2 1287.6,1159.5 1288.9,1154.2 
	1290.3,1149.2 1291.6,1144.5 1292.9,1140.1 1294.2,1136.1 1295.3,1132.4 1293.2,1132.1 1291.1,1131.8 1289,1131.6 1286.8,1131.3 
	1284.7,1130.9 1282.4,1130.6 1280.2,1130.3 1277.8,1129.9 1275.4,1129.5 1272.9,1129.1 1270.3,1128.6 1267.7,1128.1 1265,1127.6 
	1262.4,1127 1259.6,1126.4 1256.9,1125.8 1254.2,1125.1 1251.5,1124.4 1248.7,1123.6 1245.8,1122.8 1242.8,1121.8 1239.7,1120.8 
	1236.3,1119.7 1232.7,1118.4 1230.3,1122.9 1227.8,1127.8 1225.2,1133 1222.5,1138.5 1219.6,1144.3 1216.5,1150.6 1212.9,1157.4 
	1207.9,1166.2 1202.5,1173.8 1198.2,1179.1 1194,1183.8 1189.7,1188.3 1185.4,1192.7 1180.9,1197 1176.1,1201.5 1170.2,1206.8 
	1165.4,1210.9 1162.2,1213.4 1159.6,1215.7 1157.3,1217.8 1155.2,1220 1153.2,1222.5 1151.2,1225.4 1148.8,1229.5 1145.7,1232 
	1143.2,1233.9 1140.9,1235.5 1138.6,1237 1136.5,1238.2 1134.3,1239.3 1131.9,1240.3 1129,1241.3 1128.9,1245.9 1128.9,1250.4 
	1129,1255 1129.1,1259.9 1129.3,1265 1129.5,1270.2 1129.7,1275.5 1129.9,1280.8 1130.1,1286.1 1130.3,1291.4 1130.4,1296.6 
	1130.6,1301.8 1130.7,1306.9 1130.8,1312 1131,1316.9 1131.1,1321.7 1131.2,1326.3 1131.3,1330.9 1131.3,1335.4 1131.4,1339.8 
	1131.5,1344.2 1131.6,1348.5 1131.7,1352.9 1131.9,1357.3 1132.1,1361.7 1132.3,1366.2 1132.6,1370.8 1133,1375.5 1133.4,1380.2 
	1133.9,1385.1 1134.4,1390.1 1135.1,1395.2 1135.8,1400.4 1136.6,1405.8 1137.5,1411.2 1138.4,1416.7 1139.4,1422.1 1140.4,1427.6 
	1141.4,1432.9 1142.5,1438.2 1143.5,1443.3 1144.6,1448.3 1145.7,1453.2 1146.9,1457.9 1148.2,1462.6 1149.6,1467.2 1151.1,1471.8 
	1152.9,1476.2 1154.8,1480.6 1156.9,1484.9 1159,1489.1 1161.3,1492.9 1163.5,1496.5 1165.6,1499.8 1167.5,1502.7 1169.3,1505.1 
	1170.8,1507.1 1172,1508.7 1173,1509.9 1173.7,1510.8 1174.3,1511.5 1174.7,1512 1174.9,1512.4 1175.1,1512.8 1176.2,1512 
	1177.2,1511.2 1178,1510.6 1178.8,1510 1179.5,1509.6 1180.2,1509.1 1180.8,1508.7 1181.5,1508.4 1182.1,1508 1182.8,1507.7 
	1183.4,1507.3 1184.1,1507 1184.9,1506.6 1185.7,1506.2 1186.7,1505.8 1187.7,1505.3 1186.7,1505.9 1185.9,1506.5 1185.3,1507.2 
	1184.7,1507.8 1184.3,1508.4 1183.9,1509.1 1183.7,1509.8 1183.5,1510.5 1183.3,1511.2 1183.3,1511.9 1183.3,1512.7 1183.4,1513.5 
	1183.7,1514.4 1184.1,1515.4 1184.6,1516.5 1185.3,1517.6 1185.7,1517.5 1186.1,1517.4 1186.6,1517.3 1187.1,1517.3 1187.6,1517.2 
	1188.1,1517.1 1188.7,1517.1 1189.3,1517 1189.9,1516.9 1190.7,1516.8 1191.5,1516.7 1192.4,1516.6 1193.4,1516.6 1194.6,1516.6 
	1195.9,1516.6 1197.4,1516.7 1199.1,1516.9 1200.9,1517.1 1202.9,1517.4 1205,1517.7 1207.2,1517.9 1209.4,1518.2 1211.6,1518.4 
	1213.8,1518.5 1216,1518.7 1218,1518.7 1220.1,1518.7 1222,1518.7 1223.8,1518.7 1225.5,1518.7 1227.1,1518.7 1228.5,1518.7 
	1229.8,1518.7 1230.9,1518.8 1232,1519 1232.9,1519.1 1233.7,1519.2 1234.5,1519.4 1235.1,1519.6 1235.7,1519.7 1236.3,1519.8 
	1236.8,1519.9 1237.3,1520 1237.7,1520.1 1238.1,1520.2 1238.4,1520.2 1238.7,1520.2 1239,1520.2 1239.1,1519.3 1239.2,1518.4 
	1239.1,1517.6 1239,1516.8 1238.9,1516.1 1238.7,1515.4 1238.4,1514.7 1238.1,1514 1237.7,1513.3 1237.2,1512.7 1236.7,1512.1 
	1236.1,1511.4 1235.4,1510.8 1234.6,1510.1 1233.8,1509.5 1232.8,1508.8 1233.8,1509.4 1234.8,1509.9 1235.7,1510.4 1236.5,1510.9 
	1237.3,1511.3 1238,1511.8 1238.7,1512.2 1239.3,1512.6 1239.9,1513 1240.6,1513.5 1241.2,1513.9 1241.8,1514.4 1242.4,1514.9 
	1243,1515.4 1243.7,1516 1244.4,1516.6 1244.6,1516.3 1244.7,1516.1 1245,1515.6 1245.3,1515.1 1245.7,1514.2 1246.2,1513.1 
	1246.9,1511.6 1247.7,1509.6 1248.6,1507.2 1249.7,1504.4 1250.9,1501.2 1252.1,1497.6 1253.4,1493.8 1254.8,1489.7 1256.1,1485.5 
	1257.4,1481 1258.6,1476.5 1259.8,1471.9 1261,1467.2 1262.1,1462.4 1263.1,1457.6 1264,1452.7 1264.8,1447.7 1265.6,1442.7 
	1266.2,1437.7 1266.8,1432.7 1267.3,1427.7 1267.7,1422.7 1268.1,1417.7 1268.4,1412.8 1268.7,1408 1269,1403.4 1269.3,1398.8 
	1269.5,1394.4 1269.7,1390 1270,1385.8 1270.2,1381.6 1270.5,1377.5 1270.8,1373.4 1271,1369.3 1271.4,1365.3 1271.7,1361.2 
	1272.1,1357.1 1272.6,1353.1 1273.1,1348.9 1273.7,1344.7 1274.3,1340.5 1275,1336.2 1275.8,1331.8 1276.6,1327.3 1277.6,1322.8 
	1278.6,1318.2 1279.6,1313.5 1280.8,1308.8 1282,1304 1283.3,1299.2 1284.7,1294.4 1286.2,1289.6 1287.8,1284.9 1289.3,1280.4 
	1290.9,1276.2 1292.4,1272.3 1293.9,1268.8 1295.3,1265.8 1294,1263.8 "/>
<polygon class="st0" points="1438,1271.3 1437.6,1268.8 1437.1,1266.2 1436.7,1263.5 1436.2,1260.8 1435.8,1258.2 1435.3,1255.6 
	1434.9,1253.3 1434.6,1251 1434.2,1248.9 1433.9,1246.9 1433.6,1245 1433.4,1243.1 1433.2,1241.3 1433,1239.5 1432.9,1237.7 
	1432.8,1235.9 1432.7,1234.1 1432.7,1232.3 1432.7,1230.5 1432.7,1228.7 1432.8,1226.9 1432.9,1225 1433.1,1223.1 1433.3,1221.2 
	1433.5,1219.3 1433.8,1217.4 1434.1,1215.4 1434.4,1213.4 1434.8,1211.4 1435.1,1209.3 1435.5,1207.2 1435.8,1205 1436.2,1202.9 
	1436.6,1200.7 1436.9,1198.5 1437.2,1196.4 1437.5,1194.2 1437.8,1192.1 1438,1190 1438.2,1188 1438.3,1186 1438.5,1184.1 
	1438.5,1182.3 1438.6,1180.6 1438.7,1178.9 1438.7,1177.4 1438.8,1176 1438.8,1174.6 1438.8,1173.3 1438.7,1172 1438.7,1170.6 
	1438.6,1169.2 1438.5,1167.6 1438.3,1165.9 1437.2,1166 1436.2,1166 1435.1,1166 1434.1,1166 1433.1,1166 1432,1165.9 
	1430.9,1165.9 1429.8,1165.8 1428.7,1165.7 1427.5,1165.6 1426.3,1165.5 1425,1165.4 1423.7,1165.2 1422.4,1165.1 1421.1,1164.9 
	1419.8,1164.7 1418.5,1164.5 1417.2,1164.3 1415.9,1164.1 1414.5,1163.9 1413.2,1163.7 1411.8,1163.4 1410.3,1163.2 1408.8,1162.9 
	1407.3,1162.7 1405.6,1162.3 1404,1162 1402.3,1161.6 1400.5,1161.2 1398.8,1160.7 1397.1,1160.2 1395.3,1159.6 1393.7,1159 
	1392,1158.4 1390.4,1157.7 1388.9,1157 1387.4,1156.3 1385.9,1155.5 1384.5,1154.8 1383.2,1154.1 1382.4,1155.7 1381.5,1157.2 
	1380.6,1158.8 1379.7,1160.4 1378.7,1161.9 1377.7,1163.6 1376.6,1165.2 1375.5,1167 1374.4,1168.9 1373.2,1170.8 1371.9,1172.9 
	1370.6,1175.1 1369.3,1177.3 1367.8,1179.6 1366.4,1181.9 1364.9,1184.4 1363.3,1186.8 1361.7,1189.4 1360.1,1191.9 1358.4,1194.6 
	1356.7,1197.2 1355,1199.9 1353.3,1202.6 1351.5,1205.3 1349.8,1208.1 1348.1,1210.9 1346.4,1213.7 1344.7,1216.5 1343.1,1219.3 
	1341.6,1222.1 1340.2,1225 1338.8,1227.9 1337.5,1230.8 1336.4,1233.7 1335.3,1236.7 1334.3,1239.6 1333.4,1242.6 1332.6,1245.5 
	1331.9,1248.4 1331.2,1251.3 1330.6,1254.1 1330,1257 1329.5,1259.9 1329,1262.9 1328.6,1265.9 1328.2,1269.2 1327.9,1272.6 
	1327.6,1276.3 1327.3,1280.3 1327.1,1284.4 1326.9,1288.8 1326.8,1293.2 1326.8,1297.7 1326.8,1302.2 1327,1306.6 1327.2,1310.9 
	1330.4,1310.5 1333.7,1310.1 1337,1309.7 1340.3,1309.1 1343.7,1308.5 1347.1,1307.8 1350.7,1307 1354.3,1306.1 1358,1305.1 
	1361.9,1304 1365.7,1302.9 1369.6,1301.6 1373.4,1300.4 1377.1,1299.1 1380.7,1297.9 1384.1,1296.8 1387.2,1295.7 1390.2,1294.7 
	1393,1293.7 1395.7,1292.8 1398.3,1292 1400.8,1291.2 1403.2,1290.4 1405.7,1289.5 1408.1,1288.7 1410.5,1287.9 1412.9,1287 
	1415.2,1286.2 1417.5,1285.3 1419.8,1284.4 1422,1283.6 1424.1,1282.7 1426.1,1281.8 1428,1280.9 1429.9,1280.1 1431.8,1279.2 
	1433.6,1278.3 1435.3,1277.4 1437.1,1276.6 1438.8,1275.8 1438.4,1273.6 "/>
<polygon class="st0" points="1131.8,563.8 1133.3,565.2 1135,566.6 1136.7,568 1138.5,569.4 1140.5,570.9 1142.7,572.5 1145.1,574 
	1147.7,575.6 1150.5,577.1 1153.5,578.6 1156.7,579.9 1160.1,581.2 1163.8,582.5 1168.4,584 1172.2,587.5 1175.5,590.5 
	1178.7,593.3 1181.9,595.8 1185.1,598.2 1188.5,600.3 1192.1,602.2 1196.6,604 1198.1,599.8 1198.5,596.2 1198.5,592.6 
	1198.2,588.9 1197.8,585.2 1197.3,581.5 1196.8,577.7 1196.4,574 1196.1,570.3 1195.9,566.6 1195.7,563 1195.6,559.5 1195.5,555.9 
	1195.4,552.4 1195.2,548.8 1195,544.8 1196.3,541.9 1197.1,539.7 1197.7,537.8 1198.1,535.9 1198.3,534.1 1198.4,532.4 
	1198.5,530.6 1198.5,528.8 1196.8,528.4 1195.3,528 1193.9,527.8 1192.6,527.8 1191.4,527.9 1190.2,528.1 1188.9,528.5 1187.4,529 
	1185.8,529.5 1184,530.1 1182,530.7 1179.9,531.4 1177.8,532.1 1175.6,532.8 1173.4,533.6 1171.2,534.4 1169.1,535.3 1167,536.1 
	1164.9,537 1163,537.9 1161,538.8 1159.2,539.7 1157.4,540.6 1155.6,541.5 1153.9,542.4 1152.3,543.2 1150.7,544.1 1149.2,545.1 
	1147.7,546 1146.2,547 1144.8,548 1143.4,549.1 1142,550.2 1140.5,551.4 1139,552.7 1137.4,554.1 1135.6,555.6 1133.6,557.2 
	1131.4,559 1128.9,561 1130.3,562.4 "/>
<polygon class="st0" points="1380.3,824.8 1383.7,823.6 1387.2,822.2 1390.9,820.8 1394.6,819.2 1398.5,817.4 1402.6,815.5 
	1406.7,813.4 1410.8,811.3 1414.9,809.2 1418.9,807.1 1422.7,805 1426.3,803 1424.8,798.5 1423.5,794.1 1422.3,789.9 1421.4,785.9 
	1420.6,782.1 1419.9,778.4 1419.2,774.8 1418.7,771.4 1418.2,768 1417.8,764.7 1417.4,761.5 1417.1,758.2 1416.8,755 1416.6,751.8 
	1416.4,748.5 1416.2,745.1 1416.1,741.6 1416,738 1415.9,734.3 1415.9,730.5 1415.9,726.7 1415.9,722.8 1416,718.8 1416.2,714.7 
	1416.4,710.6 1416.6,706.5 1416.9,702.3 1417.2,698.3 1417.6,694.3 1418,690.5 1418.4,686.8 1418.9,683.3 1419.5,680 1420.1,676.9 
	1420.8,674 1421.6,671.2 1422.5,668.4 1423.6,665.6 1424.9,662.9 1426.3,660 1423,658.9 1419.4,657.7 1415.8,656.5 1412,655.3 
	1408.1,654.2 1404.3,653 1400.5,651.9 1396.8,650.8 1393.2,649.7 1389.7,648.7 1386.4,647.7 1383,646.7 1379.8,645.8 1376.6,644.8 
	1373.4,643.9 1370.2,642.9 1367.1,642 1364,641.1 1360.9,640.2 1357.9,639.3 1355,638.5 1352.2,637.7 1349.6,637 1347.1,636.4 
	1344.7,635.9 1342.5,635.4 1340.4,635 1338.4,634.6 1336.5,634.2 1334.7,633.9 1332.9,633.6 1331.1,633.4 1329.3,633.1 
	1327.5,632.8 1325.8,632.5 1324,632.3 1322.2,632 1320.4,631.8 1318.6,631.5 1316.9,631.2 1315.9,635.5 1315.1,639.7 1314.2,643.8 
	1313.5,647.9 1312.7,652.2 1312,656.5 1311.3,661.1 1310.6,666 1309.9,671.1 1309.2,676.6 1308.5,682.2 1307.9,688 1307.3,693.9 
	1306.8,699.9 1306.3,705.9 1305.9,711.8 1305.6,717.7 1305.3,723.5 1305.1,729.2 1304.9,734.8 1304.8,740.3 1304.8,745.7 
	1304.7,750.9 1304.7,756.1 1304.8,761.1 1304.9,766 1305,770.8 1305.2,775.6 1305.3,780.4 1305.5,785.2 1305.8,790.1 1306,795.2 
	1306.3,800.3 1306.6,805.6 1307,811 1307.4,816.5 1307.8,822.2 1308.2,828.1 1308.7,834.1 1309.2,840.3 1311.2,840 1313.1,839.7 
	1315,839.3 1317,839 1318.9,838.7 1320.9,838.4 1322.8,838 1324.8,837.7 1326.7,837.4 1328.7,837 1330.7,836.7 1332.8,836.3 
	1335,835.9 1337.3,835.5 1339.7,835 1342.2,834.5 1345,834 1347.9,833.4 1350.9,832.8 1354,832.1 1357.2,831.3 1360.4,830.6 
	1363.7,829.7 1366.9,828.9 1370.2,827.9 1373.5,827 1376.9,825.9 "/>
<polygon class="st0" points="1004.6,815.9 1004.7,820.3 1004.8,824.8 1004.9,829.4 1005,834.1 1005.2,838.9 1005.4,843.8 
	1005.6,848.7 1005.8,853.7 1006.1,858.7 1006.4,863.7 1006.7,868.6 1007,873.5 1007.3,878.3 1007.5,882.9 1007.6,887.3 
	1007.6,891.5 1007.4,895.8 1010.6,892.7 1013.5,890.2 1016.4,888 1019.3,886 1022.4,884.1 1025.5,882.3 1028.6,880.7 1031.8,879.2 
	1034.9,877.8 1038.1,876.6 1041.3,875.5 1044.5,874.5 1047.6,873.7 1050.8,873.1 1053.9,872.6 1057,872.4 1060.1,872.3 
	1063.1,872.4 1066.1,872.7 1069,873.2 1071.7,873.9 1074.4,874.7 1076.9,875.6 1079.2,876.7 1081.4,877.8 1083.5,879.1 
	1085.5,880.4 1087.4,881.7 1089.3,883 1091.2,884.3 1093,885.6 1095,886.8 1094.8,883.7 1094.5,880.2 1094.2,876.2 1093.9,872 
	1093.6,867.5 1093.3,862.9 1093,858.1 1092.8,853.3 1092.6,848.6 1092.4,843.9 1092.2,839.3 1092.1,834.7 1091.9,830.2 
	1091.8,825.9 1091.6,821.5 1091.5,817.3 1091.3,813.2 1091.1,809.1 1090.8,805.2 1090.6,801.2 1090.4,797.3 1090.2,793.5 
	1090.1,789.6 1089.9,785.8 1089.9,782 1089.9,778.1 1089.9,774.2 1090,770.2 1090.2,766.2 1090.4,762.1 1090.7,757.9 1091,753.5 
	1091.4,749.1 1091.8,744.6 1092.3,740 1092.8,735.3 1093.3,730.5 1093.9,725.8 1094.4,721 1095,716.2 1093.4,716.1 1091.8,716.1 
	1090.2,716 1088.5,716 1086.7,715.9 1084.8,715.8 1082.7,715.7 1080.5,715.5 1078.1,715.3 1075.6,715 1072.9,714.7 1070.1,714.4 
	1067.2,714.2 1064.3,713.9 1061.4,713.6 1058.4,713.4 1055.4,713.3 1052.5,713.1 1049.5,713 1046.5,713 1043.5,712.9 1040.6,712.8 
	1037.7,712.6 1034.8,712.5 1032.1,712.3 1029.4,712.1 1026.9,711.8 1024.4,711.6 1022.1,711.3 1019.9,710.9 1017.8,710.6 
	1015.8,710.3 1014.8,715.3 1013.8,720.4 1012.8,725.6 1011.9,730.8 1011,736 1010.2,741.2 1009.4,746.3 1008.6,751.3 1007.9,756.2 
	1007.3,760.9 1006.8,765.5 1006.3,770 1005.9,774.3 1005.5,778.6 1005.2,782.9 1005,787 1004.8,791.1 1004.7,795.2 1004.6,799.3 
	1004.5,803.4 1004.5,807.5 1004.5,811.7 "/>
<polygon class="st0" points="1004.6,620.4 1004.8,623.7 1005,627 1005.2,630.1 1005.5,633.2 1005.9,636.2 1006.3,639.3 
	1006.7,642.4 1007.2,645.5 1007.8,648.7 1008.4,652 1009.1,655.3 1009.9,658.9 1010.8,662.5 1011.8,666.3 1012.9,670.2 
	1014.2,674.4 1015.7,678.8 1018.9,677 1021.9,675.3 1024.7,673.7 1027.3,672.2 1029.8,670.7 1032.2,669.3 1034.5,667.9 
	1036.8,666.5 1039.1,665.1 1041.4,663.8 1043.6,662.4 1045.9,661.1 1048.1,659.8 1050.2,658.5 1052.3,657.3 1054.4,656.2 
	1056.4,655.1 1058.3,654 1060.2,653 1062,652 1063.9,651.1 1065.7,650.2 1067.5,649.3 1069.3,648.4 1068.3,645.4 1067.4,642.6 
	1066.6,640.2 1065.8,638 1065.2,636 1064.5,634.1 1064,632.3 1063.5,630.5 1063,628.8 1062.7,627 1062.4,625.3 1062.1,623.5 
	1061.9,621.7 1061.7,619.9 1061.6,618.1 1061.5,616.2 1061.4,614.2 1061.4,612.1 1061.4,610.1 1061.4,607.9 1061.4,605.7 
	1061.5,603.5 1061.7,601.2 1061.8,598.9 1062.1,596.6 1062.4,594.2 1062.7,591.9 1063,589.7 1063.3,587.5 1063.7,585.5 1064,583.6 
	1064.3,581.8 1064.5,580.3 1064.8,579 1065.1,577.8 1065.6,576.6 1066.2,575.5 1067.1,574.4 1068.1,573.2 1069.3,571.9 
	1067.7,571.1 1066,570.2 1064.4,569.4 1062.7,568.5 1061,567.6 1059.2,566.7 1057.4,565.7 1055.6,564.6 1053.7,563.5 1051.8,562.4 
	1049.8,561.2 1047.8,560 1045.8,558.7 1043.8,557.4 1041.7,556.1 1039.7,554.8 1037.6,553.5 1035.5,552.1 1033.4,550.8 
	1031.1,549.4 1028.8,548 1026.3,546.6 1023.7,545.1 1020.9,543.6 1019.1,546.1 1017.4,548.6 1015.9,551 1014.6,553.6 1013.4,556.2 
	1012.4,558.9 1011.4,561.8 1010.5,564.9 1009.6,568.2 1008.8,571.7 1008.1,575.3 1007.4,579.1 1006.8,583 1006.2,586.9 
	1005.7,590.8 1005.3,594.8 1005,598.6 1004.8,602.4 1004.6,606.2 1004.5,609.9 1004.5,613.5 1004.6,617 "/>
<polygon class="st0" points="1510,773.4 1510,770.4 1510.1,767.4 1510.1,764.4 1510.2,761.4 1510.3,758.3 1510.4,755.3 
	1510.6,752.2 1510.7,749.1 1510.9,746 1511.1,742.8 1511.3,739.7 1511.5,736.5 1511.6,733.3 1511.7,730.2 1511.8,727 1511.8,723.9 
	1511.8,720.8 1511.7,717.7 1511.6,714.6 1511.5,711.6 1511.3,708.7 1511,705.8 1510.8,703 1510.5,700.3 1510.2,697.6 1509.8,695 
	1509.5,692.5 1509.1,690.2 1508.8,687.8 1508.5,685.6 1508.2,683.5 1508,681.5 1507.8,679.6 1507.6,677.8 1507.4,676 1507.2,674.3 
	1506.9,672.5 1506.7,670.8 1506.4,669.1 1505,669.3 1503.6,669.4 1502.3,669.5 1501,669.6 1499.7,669.6 1498.4,669.6 1497.1,669.7 
	1495.8,669.7 1494.5,669.6 1493.1,669.6 1491.7,669.6 1490.3,669.6 1488.9,669.5 1487.4,669.5 1485.9,669.5 1484.4,669.4 
	1482.8,669.4 1481.2,669.3 1479.6,669.2 1478,669.2 1476.3,669.1 1474.7,669 1473,669 1471.3,668.9 1471.1,670.5 1470.9,672.2 
	1470.7,673.8 1470.4,675.5 1470.2,677.2 1469.9,679 1469.7,680.8 1469.4,682.7 1469.1,684.8 1468.8,686.9 1468.5,689.2 
	1468.1,691.6 1467.8,694 1467.4,696.6 1467,699.3 1466.6,702 1466.2,704.9 1465.8,707.9 1465.4,710.9 1464.9,714 1464.5,717.1 
	1464.1,720.3 1463.6,723.6 1463.2,726.9 1462.8,730.2 1462.4,733.5 1462,736.8 1461.6,740.2 1461.2,743.5 1460.9,746.8 
	1460.6,750.1 1460.3,753.4 1460,756.6 1459.7,759.9 1459.5,763.1 1459.2,766.3 1459,769.4 1458.9,772.6 1458.7,775.7 1458.6,778.7 
	1458.4,781.7 1458.3,784.7 1458.2,787.7 1458.1,790.8 1458,794 1458,797.4 1457.9,801 1457.9,804.8 1457.9,808.8 1457.9,813.1 
	1457.9,817.6 1457.9,822.2 1458,826.8 1458,831.4 1458.1,835.9 1458.2,840.3 1460,840.1 1461.8,840 1463.5,839.8 1465.3,839.6 
	1467,839.4 1468.8,839.3 1470.5,839.1 1472.3,838.9 1474.1,838.7 1475.8,838.5 1477.7,838.4 1479.6,838.2 1481.5,838 1483.6,837.8 
	1485.8,837.6 1488.2,837.5 1490.8,837.3 1493.5,837.1 1496.3,836.9 1499.3,836.6 1502.3,836.4 1505.5,836.1 1508.6,835.7 
	1511.8,835.4 1511.5,831.1 1511.2,826.7 1511,822.3 1510.8,817.9 1510.7,813.5 1510.5,809.2 1510.4,805.1 1510.3,801.2 
	1510.2,797.5 1510.1,794.1 1510.1,790.9 1510,787.8 1510,784.9 1510,782 1510,779.1 1510,776.3 "/>
<polygon class="st0" points="835.4,624.5 836.4,625 837.5,625.6 838.6,626.2 839.7,626.8 840.8,627.4 842,628 843.2,628.7 
	844.5,629.4 845.7,630.1 847,630.9 848.3,631.6 849.6,632.3 850.9,633.1 852.2,633.8 853.6,634.5 854.9,635.2 856.3,635.9 
	857.7,636.5 859.2,637.1 860.7,637.6 862.3,638.1 863.9,638.5 865.6,638.8 867.4,639 869.2,639.2 871,639.3 872.9,639.4 
	874.8,639.4 876.7,639.4 878.7,639.4 880.7,639.4 882.6,639.4 884.6,639.4 886.6,639.4 888.6,639.4 890.6,639.4 892.6,639.4 
	894.6,639.4 894.7,637.3 894.7,635.1 894.7,632.7 894.8,630.1 894.8,627.5 894.8,624.9 894.9,622.2 894.9,619.7 894.9,617.2 
	894.9,614.8 894.9,612.5 894.9,610.2 894.8,608.1 894.8,606 894.8,603.9 894.7,601.9 894.7,599.9 894.6,598 894.6,596.1 
	894.5,594.2 894.4,592.4 894.4,590.6 894.3,588.8 894.1,587.1 894,585.4 893.9,583.8 893.8,582.2 893.6,580.6 893.5,579.2 
	893.3,577.8 893.2,576.6 893.1,575.4 892.9,574.4 892.8,573.5 892.7,572.7 892.6,572 892.5,571.3 892.4,570.7 892.3,570.1 
	892.2,569.5 892.1,568.9 892,568.3 891.9,567.7 891.8,567 891.7,566.4 891.5,565.7 891.4,565 891.2,564.3 891.1,563.5 890.9,562.8 
	890.7,562 890.5,561.2 890.3,560.5 890.1,559.7 889.8,558.9 889.6,558.2 889.4,557.5 889.2,556.8 889,556.2 888.8,555.5 
	888.6,554.9 888.4,554.3 888.2,553.7 888,553.1 886.9,553.4 885.7,553.7 884.5,553.9 883.3,554.2 882.2,554.5 881.1,554.8 
	880,555.1 879,555.3 878,555.6 877,555.9 876.1,556.1 875.2,556.3 874.4,556.5 873.6,556.8 872.9,557 872.2,557.1 871.5,557.3 
	870.9,557.5 870.3,557.6 869.7,557.7 869.1,557.9 868.6,558 868,558.1 867.5,558.2 867,558.3 866.5,558.5 866,558.6 865.4,558.8 
	864.9,558.9 864.4,559.1 864,559.3 863.5,559.5 863,559.8 862.6,560.1 862.2,560.4 861.8,560.8 861.4,561.2 861,561.6 860.6,562 
	860.2,562.4 859.9,562.8 859.6,563.3 859.2,563.7 858.9,564.2 858.6,564.7 858.3,565.1 858,565.6 857.7,566.1 857.4,566.5 
	857.2,567 856.9,567.5 856.6,568 856.3,568.6 856,569.3 855.6,570 855.3,570.8 854.9,571.8 854.5,572.8 854.1,573.9 853.7,575.1 
	853.2,576.4 852.8,577.7 852.3,579.1 851.8,580.5 851.2,581.9 850.6,583.4 850,584.9 849.4,586.4 848.8,588 848.1,589.5 
	847.4,591.2 846.7,592.8 846,594.5 845.2,596.3 844.5,598.1 843.7,599.9 842.9,601.7 842,603.7 841.2,605.6 840.3,607.6 
	839.5,609.7 838.6,611.8 837.7,613.9 836.8,616 835.9,618 835.1,619.9 834.3,621.8 833.5,623.4 834.4,624 "/>
<polygon class="st0" points="1306.6,594.9 1307.5,595 1308.3,595.1 1309.2,595.2 1309.9,595.3 1310.7,595.4 1311.4,595.5 
	1312.1,595.6 1312.8,595.7 1313.4,595.8 1314.1,595.8 1314.7,595.9 1315.3,596 1315.8,596 1316.4,596.1 1316.9,596.2 1317.4,596.2 
	1318,596.3 1318.5,596.3 1319.1,596.3 1319.7,596.4 1320.4,596.5 1321.2,596.5 1322,596.6 1322.9,596.6 1323.9,596.7 1324.9,596.8 
	1326.1,596.9 1327.2,597 1328.4,597 1329.7,597.1 1331,597.2 1332.3,597.3 1333.6,597.4 1335,597.5 1336.3,597.6 1337.7,597.7 
	1339.1,597.8 1340.4,597.8 1341.8,597.9 1343.1,598 1344.4,598.1 1345.7,598.2 1347.1,598.3 1348.5,598.4 1349.9,598.5 
	1351.4,598.6 1353,598.7 1354.6,598.8 1356.2,599 1357.9,599.1 1359.6,599.3 1361.3,599.4 1362.9,599.6 1364.6,599.7 1364.6,598.1 
	1364.6,596.4 1364.6,594.8 1364.6,593.1 1364.6,591.5 1364.6,589.9 1364.6,588.3 1364.6,586.8 1364.6,585.3 1364.6,583.8 
	1364.6,582.3 1364.6,580.9 1364.6,579.5 1364.6,578.1 1364.6,576.7 1364.6,575.4 1364.6,574.1 1364.6,572.8 1364.6,571.5 
	1364.6,570.3 1364.5,569 1364.5,567.6 1364.4,566.3 1364.3,564.9 1362.5,565.2 1360.7,565.5 1359,565.9 1357.2,566.2 1355.4,566.6 
	1353.7,567 1352,567.4 1350.3,567.7 1348.7,568.1 1347.2,568.3 1345.6,568.6 1344.2,568.8 1342.7,569 1341.3,569.2 1339.8,569.4 
	1338.4,569.6 1337,569.7 1335.6,569.8 1334.1,570 1332.7,570.1 1331.3,570.2 1330,570.3 1328.6,570.5 1327.3,570.6 1326.1,570.8 
	1324.9,570.9 1323.8,571.1 1322.7,571.2 1321.7,571.4 1320.7,571.6 1319.8,571.8 1319,571.9 1318.3,572.1 1317.6,572.2 1317,572.4 
	1316.4,572.5 1315.9,572.6 1315.4,572.7 1314.9,572.9 1314.3,573 1313.8,573.1 1313.3,573.2 1312.8,573.3 1312.2,573.5 
	1311.6,573.6 1311,573.8 1310.4,574 1309.6,574.3 1309.2,575 1308.8,575.6 1308.4,576.2 1308,576.7 1307.6,577.3 1307.2,577.8 
	1306.7,578.4 1306,579.1 1305.9,580.1 1305.8,581 1305.7,581.8 1305.6,582.7 1305.6,583.5 1305.5,584.4 1305.4,585.3 1305.4,586.3 
	1305.3,587.2 1305.2,588.2 1305.1,589.3 1305.1,590.3 1305,591.4 1304.9,592.5 1304.8,593.5 1304.7,594.6 1305.7,594.8 "/>
<polygon class="st0" points="1512.1,622.8 1511.5,621.9 1510.9,621 1510.3,620.1 1509.8,619.2 1509.2,618.4 1508.7,617.5 
	1508.1,616.8 1507.6,616 1507.1,615.3 1506.6,614.5 1506.1,613.8 1505.6,613.1 1505.1,612.4 1504.5,611.6 1504.5,610.6 
	1504.4,609.8 1504.3,609.1 1504.1,608.5 1504,607.8 1503.8,607.1 1503.5,606.4 1503.2,605.6 1503.4,604.8 1503.6,604.2 
	1503.8,603.5 1504,603 1504.1,602.4 1504.3,601.9 1504.5,601.3 1504.6,600.8 1504.7,600.3 1504.9,599.8 1505,599.3 1505.1,598.7 
	1505.2,598.2 1505.3,597.5 1505.5,596.8 1505.6,596.1 1505.7,595.3 1505.9,594.4 1506,593.4 1506.2,592.4 1506.4,591.3 
	1506.6,590.1 1506.8,588.9 1507,587.6 1507.2,586.3 1507.5,585 1507.7,583.6 1508,582.2 1508.3,580.8 1508.6,579.4 1508.8,578 
	1509.1,576.5 1509.4,575.1 1509.6,573.6 1509.9,572.2 1510.1,570.7 1510.3,569.2 1510.6,567.7 1510.8,566.1 1511,564.4 
	1511.2,562.7 1511.5,561 1511.7,559.2 1512,557.4 1512.2,555.5 1512.5,553.7 1512.9,551.9 1513.3,550.1 1511.8,549.7 1510.3,549.3 
	1508.8,549 1507.2,548.6 1505.6,548.3 1503.9,548 1502.2,547.7 1500.5,547.5 1498.7,547.3 1496.9,547.2 1495.2,547.1 1493.4,547 
	1491.7,546.9 1490,546.9 1488.4,546.8 1486.9,546.8 1485.4,546.8 1483.9,546.7 1482.6,546.7 1481.2,546.7 1479.9,546.6 
	1478.6,546.6 1477.3,546.6 1476,546.5 1474.7,546.5 1473.4,546.5 1472.1,546.5 1470.9,546.5 1469.6,546.5 1468.4,546.5 
	1467.3,546.5 1466.1,546.6 1465,546.6 1464,546.7 1462.9,546.7 1461.9,546.8 1460.9,546.9 1459.9,547 1458.9,547.1 1457.9,547.2 
	1458.2,549 1458.7,551 1459.2,553 1459.7,555.1 1460.2,557.3 1460.8,559.5 1461.4,561.6 1462,563.8 1462.6,565.9 1463.3,567.9 
	1463.9,569.9 1464.5,571.8 1465.1,573.7 1465.7,575.5 1466.2,577.3 1466.8,579.1 1467.3,580.8 1467.9,582.5 1468.4,584.1 
	1468.9,585.7 1469.4,587.2 1469.9,588.8 1470.4,590.2 1471,591.7 1471.5,593 1472.1,594.4 1472.7,595.6 1473.3,596.8 1473.9,598 
	1474.4,599 1474.9,600 1475.4,600.9 1475.8,601.7 1476.2,602.4 1476.5,603.1 1476.8,603.7 1477,604.2 1477.3,604.8 1477.5,605.3 
	1477.8,605.8 1478,606.3 1478.3,606.8 1478.5,607.3 1478.8,607.8 1479.1,608.3 1479.3,608.8 1479.6,609.3 1479.9,609.8 
	1480.1,610.2 1480.4,610.7 1480.6,611.2 1480.9,611.7 1481.1,612.2 1481.3,612.7 1481.5,613.2 1481.6,613.7 1481.8,614.2 
	1481.9,614.7 1482,615.2 1482.1,615.7 1482.2,616.3 1482.3,616.8 1482.4,617.3 1482.4,617.8 1482.5,618.4 1482.7,618.9 
	1482.8,619.4 1482.9,620 1483.1,620.5 1483.2,621.1 1483.4,621.8 1483.6,622.4 1483.8,623.1 1484.1,623.8 1484.4,624.6 
	1484.7,625.4 1485,626.2 1485.4,627.1 1485.7,628 1486.1,628.9 1486.6,629.9 1487,630.9 1487.4,631.9 1487.9,633 1488.4,634.1 
	1488.9,635.2 1489.4,636.3 1489.8,637.4 1490.4,637.1 1490.9,636.8 1491.4,636.5 1491.9,636.3 1492.5,636 1493,635.7 1493.5,635.4 
	1494.1,635.1 1494.7,634.8 1495.3,634.5 1496,634.1 1496.6,633.8 1497.3,633.4 1498,633.1 1498.6,632.7 1499.3,632.3 1500,632 
	1500.7,631.6 1501.4,631.2 1502.1,630.8 1502.9,630.4 1503.7,630 1504.5,629.5 1505.4,629.1 1506.3,628.5 1507.3,628 1508.3,627.4 
	1509.3,626.9 1510.4,626.3 1511.4,625.8 1512.3,625.2 1513.3,624.7 1512.7,623.8 "/>
<polygon class="st0" points="1132.8,753.3 1134.8,753.3 1136.9,753.3 1138.9,753.4 1141,753.4 1143.1,753.5 1145.1,753.6 
	1147.2,753.7 1149.3,753.9 1151.4,754 1153.6,754.2 1155.7,754.3 1157.9,754.3 1160.1,754.3 1162.3,754.2 1160.2,754.8 1158,755.4 
	1155.9,756 1153.9,756.8 1151.9,757.5 1149.9,758.4 1147.9,759.3 1146.1,760.4 1144.3,761.4 1142.5,762.6 1140.8,763.8 
	1139.1,765.1 1137.5,766.4 1135.9,767.7 1134.3,769 1132.8,770.3 1134.8,773 1136.7,775.7 1138.5,778.3 1140.3,780.9 1141.9,783.5 
	1143.5,786.1 1145,788.7 1146.4,791.4 1147.7,790.7 1149.1,789.9 1150.4,789.2 1151.8,788.4 1153.2,787.7 1154.6,786.9 1156,786.1 
	1157.4,785.3 1158.9,784.5 1160.3,783.7 1161.8,782.8 1163.2,781.9 1164.8,780.9 1166.3,779.9 1167.9,778.8 1169.6,777.6 
	1168.1,779 1166.8,780.4 1165.5,781.8 1164.4,783.1 1163.3,784.5 1162.3,785.9 1161.3,787.2 1160.4,788.6 1159.6,789.9 
	1158.7,791.3 1157.9,792.7 1157.2,794.1 1156.5,795.5 1155.8,796.9 1155.1,798.3 1154.5,799.7 1157.4,801.2 1160.3,802.9 
	1163.4,804.7 1166.6,806.5 1169.9,808.5 1173.5,810.4 1177.2,812.4 1181,814.4 1185,816.4 1189.1,818.3 1193.3,820.2 1197.6,822 
	1202,823.8 1206.3,825.5 1210.7,827.1 1215,828.6 1219.3,830.1 1223.6,831.5 1227.8,832.8 1231.9,834.1 1236.1,835.3 1240.2,836.6 
	1244.4,837.8 1249.1,839.2 1253,839.5 1256.1,839.7 1258.8,840 1261.5,840.2 1264,840.3 1266.7,840.3 1269.5,840.1 1273.2,839.4 
	1272.9,836.5 1272.6,834.2 1272.2,831.9 1271.8,829.5 1271.1,826.9 1270.3,824 1269.1,820.7 1267.1,815.9 1264.5,810.9 
	1262.5,807.1 1260.6,803.5 1258.7,800.1 1257,796.6 1255.3,793.2 1253.7,789.6 1252.1,785.9 1250.7,782.1 1249.3,778.2 1248,774.3 
	1246.8,770.3 1245.7,766.3 1244.7,762.4 1243.8,758.6 1243,754.9 1242.4,751.3 1241.9,747.9 1241.5,744.6 1241.3,741.3 
	1241.2,738.1 1241.3,734.9 1241.5,731.6 1241.9,728.2 1242.4,724.8 1243.1,721.2 1243.9,717.6 1244.9,713.9 1246.1,710.2 
	1247.4,706.5 1248.8,702.9 1250.4,699.3 1252.1,695.9 1254,692.5 1256,689.1 1258.1,685.7 1260.2,682.2 1262.5,678.6 1264.8,674.4 
	1267.6,668.8 1269.5,662.9 1270.6,658.5 1271.4,654.6 1271.9,651 1272.3,647.5 1272.7,644 1273,640.4 1273.2,636 1269.4,635.5 
	1266.5,635.7 1263.8,636 1261.2,636.5 1258.6,637.1 1255.8,637.7 1252.9,638.3 1249.2,638.7 1244.9,640.8 1241.1,642.4 1237.4,644 
	1233.6,645.5 1229.8,647 1226,648.5 1222,650 1218,651.6 1213.9,653.1 1209.7,654.7 1205.5,656.3 1201.3,658 1197.2,659.6 
	1193.3,661.2 1189.4,662.8 1185.8,664.4 1182.4,665.9 1179.2,667.3 1176.1,668.7 1173.1,670 1170.2,671.3 1167.2,672.6 
	1164.2,673.8 1160.9,675 1161.5,676.7 1162.1,678.4 1162.8,680.1 1163.5,681.7 1164.2,683.4 1164.9,685 1165.7,686.6 1166.5,688.1 
	1167.3,689.7 1168.2,691.1 1169.1,692.6 1170,694 1171,695.4 1172,696.8 1173,698.3 1174.1,699.8 1172.8,698.5 1171.5,697.2 
	1170.2,696.1 1168.9,695 1167.5,694 1166.2,693 1164.8,692 1163.3,691.1 1161.9,690.2 1160.4,689.2 1159,688.3 1157.5,687.4 
	1156,686.5 1154.5,685.5 1153,684.6 1151.5,683.7 1149.5,686.8 1147.4,689.9 1145.2,693.2 1142.8,696.6 1140.5,700.1 1138.1,703.7 
	1135.8,707.2 1133.5,710.7 1135.1,711.9 1136.8,713.1 1138.5,714.2 1140.3,715.4 1142.1,716.5 1143.9,717.6 1145.8,718.6 
	1147.6,719.6 1149.6,720.4 1151.5,721.2 1153.5,722 1155.6,722.7 1157.6,723.4 1159.7,724.1 1161.7,724.9 1163.8,725.6 
	1161.6,725.2 1159.5,724.9 1157.3,724.7 1155.2,724.6 1153.1,724.6 1150.9,724.6 1148.8,724.6 1146.7,724.6 1144.5,724.6 
	1142.4,724.5 1140.3,724.4 1138.2,724.3 1136.1,724.2 1134,724.1 1131.9,723.9 1129.9,723.8 1129.8,727.8 1129.6,731.7 
	1129.5,735.5 1129.4,739.3 1129.3,742.9 1129.2,746.4 1129,749.9 1128.9,753.3 1130.8,753.3 "/>
<polygon class="st0" points="835.8,777.3 836.7,781.3 837.5,785.3 838.3,789.2 838.9,793 839.4,796.7 839.9,800.2 840.2,803.5 
	840.4,806.7 840.5,809.7 840.5,812.6 840.5,815.5 840.4,818.3 840.4,821.1 840.3,824 840.3,826.9 840.3,829.9 840.3,833 
	840.3,836.2 840.3,839.4 840.4,842.7 840.5,846 840.6,849.3 840.7,852.7 840.9,856.1 841,859.5 841.2,862.8 841.3,866.1 
	841.5,869.3 841.6,872.3 841.8,875.3 841.9,878 841.9,880.7 841.8,883.2 841.6,885.6 841.2,887.9 840.5,890.3 839.6,892.7 
	837.8,895.8 841.6,894.8 844.5,894.1 847.2,893.3 849.7,892.6 852.2,891.9 854.7,891.2 857.1,890.5 859.6,889.9 862.1,889.4 
	864.7,888.9 867.5,888.4 870.5,888 873.6,887.7 876.9,887.4 880.4,887.2 884.2,887 888.1,886.9 892.2,886.9 896.5,886.9 900.8,887 
	905.1,887 909.4,887.1 913.7,887.2 917.8,887.3 921.9,887.3 925.7,887.4 929.4,887.4 933,887.4 936.4,887.4 939.7,887.5 
	942.8,887.6 945.8,887.7 948.8,887.9 951.7,888.2 954.7,888.5 957.8,888.9 960.9,889.2 964.2,889.6 967.8,889.9 972.4,890.1 
	970.9,886.8 970.4,884 970.2,881.2 970.2,878.4 970.4,875.4 970.7,872.4 971.1,869.2 971.4,865.9 971.7,862.5 971.8,859 
	971.8,855.4 971.8,851.7 971.7,847.8 971.6,843.8 971.5,839.7 971.3,835.5 971.2,831.1 971.2,826.5 971.1,821.8 971.1,816.9 
	971.1,811.8 971.2,806.5 971.3,800.9 971.4,795.1 971.6,789 971.8,782.7 972,776.4 972.2,770 972.4,763.6 972.6,757.4 972.8,751.3 
	972.9,745.5 973,740 973,734.8 973,729.8 972.9,725.1 972.8,720.4 972.7,716 972.5,711.5 972.3,707.1 972.1,702.7 971.9,698.3 
	971.8,693.9 971.7,689.4 971.8,684.9 972,680.3 972.4,675.6 973,670.9 969.5,671.4 965.9,672 962.2,672.6 958.3,673.4 954.1,674.4 
	949.8,675.6 945,677.1 939.1,679.2 934.3,685.1 930.4,689.9 926.8,694.2 923.4,698.3 920,702.1 916.7,705.6 913.4,708.9 
	910.2,711.9 906.9,714.7 903.6,717.2 900.2,719.5 896.7,721.7 893.1,723.7 889.4,725.7 885.5,727.6 881.4,729.6 877,731.5 
	872.5,733.5 867.8,735.4 862.8,737.4 857.6,739.3 852.2,741.2 846.3,743.1 838.1,745.4 837.9,749.1 837.5,751.8 837.1,754.3 
	836.6,756.7 836,759.2 835.4,761.9 834.6,764.8 833.5,768.6 834.7,773.2 "/>
<polygon class="st0" points="1443,990.9 1443.1,986.4 1443.2,981.9 1443.3,977.7 1443.5,973.8 1443.7,970.2 1444,966.8 
	1444.2,963.7 1444.5,960.7 1444.8,957.9 1445.1,955.2 1445.4,952.6 1445.7,950 1446,947.5 1446.3,944.9 1446.6,942.3 1447,939.7 
	1447.3,937.2 1447.6,934.6 1447.9,932 1448.3,929.4 1444.6,929 1440.9,928.7 1437.4,928.3 1433.8,927.9 1430.2,927.5 1426.5,927.1 
	1422.7,926.7 1418.8,926.2 1414.7,925.7 1410.5,925.2 1406.3,924.7 1402.2,924.2 1398.2,923.6 1394.4,923.1 1390.9,922.6 
	1387.8,922.1 1387.5,924.1 1387.2,926.1 1386.9,928 1386.7,930 1386.4,932 1386.1,933.9 1385.8,935.9 1385.5,937.8 1385.1,939.8 
	1384.8,941.8 1384.4,943.9 1383.9,946.1 1383.2,948.6 1382.3,951.3 1381.1,954.5 1379.1,959.2 1381,963.7 1381.9,967.7 
	1382.5,971.6 1382.8,975.6 1382.7,979.7 1382.4,984 1381.9,988.4 1380.9,993.5 1381.8,998.2 1382.3,1002.2 1382.6,1005.8 
	1382.6,1009.3 1382.4,1012.6 1382.1,1015.7 1381.6,1018.7 1381.1,1021.5 1380.4,1024.1 1379.8,1026.5 1379.1,1028.8 1378.4,1030.9 
	1377.7,1032.9 1376.9,1034.9 1376.2,1036.8 1375.4,1038.6 1378.5,1040.5 1381.9,1042.6 1385.6,1044.9 1389.6,1047.3 1393.8,1049.8 
	1398.4,1052.4 1403.3,1055.1 1408.6,1058.7 1411.4,1061.8 1412.9,1064.1 1414.3,1066 1415.8,1067.8 1417.3,1069.6 1418.9,1071.3 
	1420.7,1073.2 1422.9,1075.4 1426.4,1077.1 1429.2,1078.5 1431.9,1079.8 1434.6,1081.1 1437.4,1082.5 1440.4,1083.8 1443.7,1085.2 
	1448.3,1086.9 1448.1,1084.1 1448,1082.2 1447.8,1080.4 1447.4,1078.7 1446.8,1076.9 1445.8,1075.1 1444.5,1073.2 1443.4,1070.9 
	1443.1,1068.5 1443.3,1066.5 1443.1,1064.7 1442.6,1063 1441.5,1061.5 1440.5,1060.2 1439.9,1059.4 1439.5,1058.3 1439.6,1057 
	1440,1055.8 1440.4,1054.6 1441.4,1052.7 1442.1,1050.4 1442.5,1047.7 1442.9,1044.8 1443.1,1041.6 1443.2,1038.2 1443.3,1034.5 
	1443.3,1030.7 1443.3,1026.8 1443.2,1022.6 1443.2,1018.4 1443.1,1014 1443,1009.5 1443,1004.9 1442.9,1000.2 1442.9,995.6 "/>
<polygon class="st0" points="1096.9,1152.2 1097,1146.7 1097.1,1141.2 1097.2,1135.8 1097.3,1130.3 1097.3,1124.9 1097.3,1119.6 
	1097.1,1114.3 1096.8,1109.2 1093.4,1110.4 1090.1,1111.5 1086.8,1112.5 1083.5,1113.3 1080.3,1114 1077,1114.6 1073.7,1115 
	1070.3,1115.2 1066.8,1115.2 1063.3,1115.1 1059.6,1114.7 1055.6,1114.2 1051.3,1113.4 1046.6,1112.4 1041.2,1111.2 1034.2,1109.3 
	1029.9,1103.2 1026.3,1098.5 1022.8,1094.3 1019.5,1090.4 1016.4,1086.7 1013.3,1083.3 1010.3,1080 1007.5,1076.7 1004.7,1073.5 
	1002,1070.4 999.3,1067.1 996.6,1063.9 993.9,1060.5 991.2,1057 988.3,1053.4 985.4,1049.6 982.3,1045.8 979.2,1041.8 976.1,1037.8 
	973.1,1033.8 970.2,1029.8 967.5,1025.9 965,1022.2 962.8,1018.6 961,1015.3 959.5,1012.1 958.3,1009.2 957.5,1006.4 956.9,1003.7 
	956.5,1001.2 956.4,998.8 956.4,996.5 956.6,994.2 957,992 957.5,989.9 958.2,987.8 959,985.7 960,983.6 961.2,981.6 962.5,979.5 
	964,977.5 965.6,975.4 967.5,973.4 969.7,971.3 972.1,969.2 975,967 978.3,964.5 983.6,960.9 978.6,958.5 975,956.9 971.7,955.3 
	968.6,953.9 965.6,952.3 962.7,950.7 959.7,948.9 956.3,946.6 949.8,945.3 944.2,944.2 938.7,943.1 933.5,942 928.5,941 
	923.8,939.9 919.5,939 915.5,938.1 911.9,937.2 908.7,936.4 905.8,935.7 903.2,935 900.8,934.3 898.6,933.6 896.4,933 894.4,932.3 
	892.3,931.7 890.2,931.1 888.2,930.4 886.1,929.8 884,929.2 882,928.5 879.9,927.9 877.8,927.3 877.1,929.6 876.3,932 875.5,934.4 
	874.7,936.8 874,939.2 873.2,941.5 872.5,943.8 871.8,946.1 871.1,948.3 870.4,950.5 869.8,952.6 869.1,954.7 868.6,956.7 
	868,958.6 867.4,960.5 866.9,962.3 866.4,964 865.9,965.7 865.5,967.3 865,969 864.6,970.7 864.2,972.4 863.7,974.2 863.3,976.1 
	862.8,978.1 862.2,980.3 861.7,982.7 861.2,985.1 860.6,987.7 860,990.5 859.3,993.4 858.7,996.4 858,999.6 857.3,1002.9 
	856.6,1006.4 855.9,1010.1 855.1,1013.9 854.4,1017.8 853.6,1021.9 852.8,1026.2 852,1030.6 851.2,1035.2 850.4,1039.9 
	849.5,1044.7 848.7,1049.6 847.9,1054.6 847.1,1059.7 846.3,1064.9 845.6,1070.2 844.8,1075.5 844.1,1080.9 843.4,1086.3 
	842.7,1091.8 842,1097.3 841.3,1102.8 840.7,1108.2 840,1113.7 839.4,1119.1 838.9,1124.6 838.3,1130 837.7,1135.5 837.2,1141 
	836.7,1146.6 836.3,1152.3 835.8,1158 835.4,1163.8 835,1169.7 834.7,1175.5 834.4,1181.3 834.1,1187 833.9,1192.7 833.7,1198.2 
	833.6,1203.7 833.5,1209 833.5,1214.2 833.5,1219.3 833.5,1224.3 833.6,1229.2 833.7,1234 833.8,1238.7 833.9,1243.3 834.1,1247.8 
	834.3,1252.2 834.5,1256.6 834.7,1260.9 835,1265.3 835.2,1269.6 835.5,1274 835.8,1278.5 836.2,1283 836.6,1287.5 837,1292.1 
	837.4,1296.7 837.9,1301.3 838.4,1306 838.9,1310.6 839.4,1315.3 840,1320 840.6,1324.7 841.2,1329.4 841.9,1334.3 842.6,1339.2 
	843.3,1344.3 844.1,1349.5 844.9,1354.8 845.8,1360.3 846.7,1365.9 847.7,1371.6 848.7,1377.4 849.8,1383.3 850.9,1389.2 
	852,1395.2 853.2,1401.3 854.3,1407.3 855.5,1413.3 856.7,1419.4 857.9,1425.3 859.1,1431.2 860.2,1437.1 861.4,1442.8 
	862.5,1448.4 863.6,1453.9 864.6,1459.3 865.7,1464.6 866.7,1469.8 867.6,1474.9 868.5,1479.9 869.4,1484.8 870.3,1489.6 
	871.1,1494.4 871.9,1499 872.7,1503.5 873.4,1507.9 874.1,1512.2 874.8,1516.3 875.5,1520.2 878.1,1519.9 880.8,1519.5 
	883.5,1519.1 886.2,1518.8 888.9,1518.4 891.6,1518 894.3,1517.7 896.9,1517.3 899.6,1517 902.4,1516.7 905.2,1516.3 908.1,1516 
	911.2,1515.6 914.4,1515.3 918,1514.9 921.8,1514.5 925.9,1514.1 930.3,1513.8 934.9,1513.4 939.7,1513 944.6,1512.7 949.5,1512.4 
	954.5,1512.1 959.3,1511.8 964,1511.6 968.7,1511.4 973.1,1511.2 977.5,1511.2 981.7,1511.2 985.7,1511.2 989.5,1511.4 
	993.2,1511.6 996.5,1511.9 999.6,1512.3 1002.4,1513 1004.8,1513.8 1006.8,1514.9 1008,1515.4 1009.3,1515.9 1010.5,1516.1 
	1011.7,1515.8 1012.7,1515.2 1014,1514.1 1015.7,1513.1 1017.5,1512.6 1019.5,1512.6 1021.5,1513 1024.1,1512.8 1026.6,1511.8 
	1028.7,1510.5 1030.7,1509.7 1032.6,1509.1 1034.5,1508.9 1036.4,1508.8 1038.4,1508.9 1041.3,1509 1042.9,1504.4 1044,1501.1 
	1044.9,1498.1 1045.8,1495.2 1046.9,1492.3 1048.2,1489.3 1049.9,1486.2 1052.5,1482.4 1053.2,1478.3 1053.9,1475.2 1054.6,1472.4 
	1055.3,1469.8 1056.1,1467.4 1057,1465.1 1058,1463 1059.1,1460.9 1060.4,1458.8 1061.8,1456.9 1063.4,1455 1065.1,1453.3 
	1067,1451.7 1069,1450.3 1071.2,1448.9 1073.5,1447.7 1076.1,1446.7 1078.8,1445.7 1081.6,1444.9 1084.6,1444.3 1087.6,1443.7 
	1090.8,1443.3 1094,1442.9 1097.3,1442.5 1096.7,1440.6 1096.1,1439.1 1095.7,1437.9 1095.3,1436.6 1094.9,1435.4 1094.5,1434 
	1094.2,1432.5 1093.9,1431 1093.6,1429.5 1093.4,1427.8 1093.1,1426 1092.9,1423.8 1092.7,1421.3 1092.6,1418.1 1092.5,1414.4 
	1092.6,1409.8 1092.9,1404.5 1093.2,1398.4 1093.7,1391.8 1094.3,1384.8 1094.9,1377.6 1095.5,1370.4 1096,1363.3 1096.5,1356.5 
	1096.7,1350.2 1096.9,1344.2 1097,1338.7 1097,1333.4 1097,1328.4 1096.9,1323.5 1096.9,1318.8 1096.8,1314.1 1096.8,1309.5 
	1096.9,1304.8 1096.9,1300.2 1097,1295.6 1097.1,1291 1097.2,1286.4 1097.3,1281.9 1097.3,1277.5 1097.3,1273 1097.3,1268.6 
	1097.3,1264.2 1097.3,1259.8 1097.3,1255.2 1097.3,1250.6 1097.2,1245.8 1097.2,1240.8 1097.2,1235.7 1097.2,1230.3 1097.2,1224.8 
	1097.2,1219.2 1097.2,1213.5 1097.2,1207.8 1097.1,1202.1 1097.1,1196.3 1097,1190.7 1096.9,1185.1 1096.9,1179.5 1096.9,1174 
	1096.8,1168.5 1096.8,1163.1 1096.8,1157.6 "/>
<rect x="1128.9" y="871.8" class="st0" width="215" height="215"/>
<text transform="matrix(1 0 0 1 581.7568 1132.459)" class="st1 st2">Rücken</text>
<text transform="matrix(1 0 0 1 865.8647 1127.5947)" class="st1 st2">Bauch</text>
<text transform="matrix(1 0 0 1 1151.9189 1281.3242)" class="st1 st2">Arm Oben</text>
<text transform="matrix(1 0 0 1 1371.8105 1226.8379)" class="st1 st2">Schläfe</text>
<text transform="matrix(1 0 0 1 1353.3242 1422.4053)" class="st1 st2">Fußfläche</text>
<text transform="matrix(1 0 0 1 1401.6123 972.0508)" class="st1 st2">Hals</text>
<text transform="matrix(1 0 0 1 1468.1348 751.0542)" class="st1 st2">Kopf</text>
<text transform="matrix(1 0 0 1 1319.2705 694.6216)" class="st1 st2">Nacken</text>
<text transform="matrix(1 0 0 1 1169.4326 713.1079)" class="st1 st2">Fuß oberseite</text>
<text transform="matrix(1 0 0 1 1009.75 777.3242)" class="st1 st2">Arm unterseite</text>
<text transform="matrix(1 0 0 1 857.5947 782.189)" class="st1 st2">Fuß rückseite</text>
<text transform="matrix(1 0 0 1 595.8647 749.1079)" class="st1 st2">Fuß vorderseite</text>
<text transform="matrix(1 0 0 1 552.0811 573.4863)" class="st1 st2">Kiefer</text>
<text transform="matrix(1 0 0 1 672.7295 595.8647)" class="st1 st2">Tatze</text>
<text transform="matrix(1 0 0 1 852.2432 596.8379)" class="st1 st2">Kinn</text>
<text transform="matrix(1 0 0 1 1015.2163 599.7568)" class="st1 st2">Schulter</text>
<text transform="matrix(1 0 0 1 1148.5137 559.3784)" class="st1 st2">Hals</text>
<text transform="matrix(1 0 0 1 1465.2158 560.3516)" class="st1 st2">Schnauze</text>
<text transform="matrix(1 0 0 1 1310.5137 581.7568)" class="st1 st2">Gesicht</text>
<text transform="matrix(1 0 0 1 1144.1348 938.8379)" class="st1 st2">Referenz 0.5 * 0.5 Meter</text>
</svg>
